<svg width="158" height="160" viewBox="0 0 158 160" fill="none" xmlns="http://www.w3.org/2000/svg">
<path d="M2 11.1858C2 6.76751 5.58172 3.18579 10 3.18579H148C152.418 3.18579 156 6.76751 156 11.1858V149.186C156 153.604 152.418 157.186 148 157.186H10C5.58172 157.186 2 153.604 2 149.186V11.1858Z" stroke="white" stroke-width="4"/>
<path d="M38.0011 89.551L47.0801 31.4777L103.055 24.4972L129.739 74.6842L88.1881 116.235L38.0011 89.551Z" stroke="#363636" stroke-width="3"/>
<path d="M82.0938 68.5892L46.7384 33.2338" stroke="#363636" stroke-width="3"/>
<path d="M82.5757 67.4391L38.0979 90.0976" stroke="#363636" stroke-width="3"/>
<path d="M81.7358 66.6002L88.4495 115.274" stroke="#363636" stroke-width="3"/>
<path d="M81.7358 66.6002L129.57 74.153" stroke="#363636" stroke-width="3"/>
<path d="M81.7358 66.6002L102.716 25.4792" stroke="#363636" stroke-width="3"/>
<path d="M37.5459 91.9239L104.014 25.4559" stroke="#363636" stroke-width="3"/>
<path d="M89.2891 116.113L46.4897 33.0319" stroke="#363636" stroke-width="3"/>
<path d="M45.6504 33.871L129.571 74.1528" stroke="#363636" stroke-width="3"/>
<path d="M130.41 73.3136L37.2585 90.9369" stroke="#363636" stroke-width="3"/>
<path d="M102.716 25.4791L89.2891 116.113" stroke="#363636" stroke-width="3"/>
<circle cx="87.7505" cy="115.258" r="10.75" transform="rotate(-45 87.7505 115.258)" fill="#363636" stroke="white" stroke-width="1.5"/>
<path d="M45.1474 98.1109C49.3696 93.8887 49.1626 86.9232 44.7939 82.5545C40.4251 78.1858 33.4597 77.9787 29.2375 82.201C25.0153 86.4232 25.2224 93.3886 29.5911 97.7573C33.9598 102.126 40.9252 102.333 45.1474 98.1109Z" fill="#363636" stroke="white" stroke-width="1.5"/>
<path d="M53.9862 39.7746C58.355 35.4059 58.562 28.4405 54.3398 24.2182C50.1176 19.996 43.1522 20.2031 38.7835 24.5718C34.4147 28.9405 34.2077 35.9059 38.4299 40.1281C42.6521 44.3504 49.6175 44.1433 53.9862 39.7746Z" fill="#363636" stroke="white" stroke-width="1.5"/>
<path d="M94.9981 16.4402C90.7759 20.6624 90.9829 27.6278 95.3516 31.9966C99.7204 36.3653 106.686 36.5723 110.908 32.3501C115.13 28.1279 114.923 21.1625 110.554 16.7938C106.186 12.425 99.2203 12.218 94.9981 16.4402Z" fill="#363636" stroke="white" stroke-width="1.5"/>
<path d="M74.1383 59.9273C69.7695 64.296 69.5625 71.2615 73.7847 75.4837C78.0069 79.7059 84.9723 79.4988 89.3411 75.1301C93.7098 70.7614 93.9168 63.796 89.6946 59.5738C85.4724 55.3516 78.507 55.5586 74.1383 59.9273Z" fill="#363636" stroke="white" stroke-width="1.5"/>
<path d="M121.161 66.6447C116.963 70.8428 116.963 77.6494 121.161 81.8475C125.359 86.0456 132.166 86.0456 136.364 81.8475C140.562 77.6494 140.562 70.8428 136.364 66.6447C132.166 62.4466 125.359 62.4466 121.161 66.6447Z" fill="#363636" stroke="white" stroke-width="1.5"/>
</svg>
