<svg width="158" height="158" viewBox="0 0 158 158" fill="none" xmlns="http://www.w3.org/2000/svg">
<rect x="2" y="2" width="154" height="154" rx="8" stroke="white" stroke-width="4"/>
<circle cx="79" cy="81.7631" r="13.75" fill="#363636" stroke="white" stroke-width="1.5"/>
<path d="M116 49.2631L117.136 48.2837L116 49.2631ZM92.5 81.7635L108.146 89.1927L106.757 71.928L92.5 81.7635ZM80.492 75.1092C79.0464 61.1345 84.9402 51.6087 92.4414 47.2474C99.9918 42.8576 109.165 43.632 114.864 50.2425L117.136 48.2837C110.335 40.3939 99.5081 39.6686 90.9335 44.6539C82.3097 49.6679 75.9537 60.3926 77.5079 75.4178L80.492 75.1092ZM114.864 50.2425C121.853 58.3494 123.628 64.7604 122.005 69.3343C120.379 73.9137 115.047 77.5016 105.69 79.2047L106.227 82.1562C115.877 80.3999 122.647 76.4945 124.832 70.3376C127.019 64.1752 124.312 56.6072 117.136 48.2837L114.864 50.2425Z" fill="#363636"/>
</svg>
