<svg width="158" height="158" viewBox="0 0 158 158" fill="none" xmlns="http://www.w3.org/2000/svg">
<rect x="158" y="158" width="158" height="158" rx="10" transform="rotate(180 158 158)" fill="#535353"/>
<line x1="34.5" y1="11" x2="34.5" y2="148" stroke="white"/>
<line x1="57.5" y1="11" x2="57.5" y2="148" stroke="white"/>
<line x1="80.5" y1="11" x2="80.5" y2="148" stroke="white"/>
<line x1="102.5" y1="11" x2="102.5" y2="148" stroke="white"/>
<line x1="125.5" y1="11" x2="125.5" y2="148" stroke="white"/>
<line x1="148" y1="34.5" x2="11" y2="34.5" stroke="white"/>
<line x1="148" y1="57.5" x2="11" y2="57.5" stroke="white"/>
<line x1="148" y1="80.5" x2="11" y2="80.5" stroke="white"/>
<line x1="148" y1="102.5" x2="11" y2="102.5" stroke="white"/>
<line x1="148" y1="125.5" x2="11" y2="125.5" stroke="white"/>
<rect x="11.5" y="11.5" width="136" height="136" stroke="white"/>
<line opacity="0.18" x1="45" y1="79.5" x2="80" y2="79.5" stroke="#535353"/>
<line opacity="0.18" x1="79.5" y1="45" x2="79.5" y2="80" stroke="#535353"/>
<rect opacity="0.8" x="11" y="12" width="69" height="68" fill="white"/>
<rect opacity="0.8" x="80" y="80" width="68" height="68" fill="white"/>
<rect opacity="0.8" x="103" y="35" width="22" height="22" fill="white"/>
<rect opacity="0.8" x="34" y="103" width="23" height="22" fill="white"/>
<path d="M5.61538 42.4783H1V48.7391H5.61538V55L21 45.6087L5.61538 37V42.4783Z" fill="#D9D9D9" stroke="#535353" stroke-width="2"/>
<path d="M48.5217 5.61538L48.5217 1L42.2609 0.999999L42.2609 5.61538L36 5.61538L45.3913 21L54 5.61538L48.5217 5.61538Z" fill="#D9D9D9" stroke="#535353" stroke-width="2"/>
</svg>
