<svg width="158" height="158" viewBox="0 0 158 158" fill="none" xmlns="http://www.w3.org/2000/svg">
<rect x="158" y="158" width="158" height="158" rx="10" transform="rotate(180 158 158)" fill="#535353"/>
<rect opacity="0.8" x="12" y="81" width="46" height="67" fill="white"/>
<rect opacity="0.8" x="81" y="12" width="67" height="46" fill="white"/>
<rect opacity="0.8" x="81" y="81" width="66" height="66" fill="white"/>
<line x1="34.5" y1="11" x2="34.5" y2="148" stroke="white"/>
<line x1="34.5" y1="11" x2="34.5" y2="58" stroke="white"/>
<line x1="102.5" y1="11" x2="102.5" y2="58" stroke="white"/>
<line x1="125.5" y1="11" x2="125.5" y2="58" stroke="white"/>
<line x1="57.5" y1="11" x2="57.5" y2="148" stroke="white"/>
<rect opacity="0.8" x="12" y="12" width="45" height="45" fill="white"/>
<line x1="80.5" y1="11" x2="80.5" y2="148" stroke="white"/>
<line x1="102.5" y1="11" x2="102.5" y2="148" stroke="white"/>
<line x1="125.5" y1="11" x2="125.5" y2="148" stroke="white"/>
<line x1="148" y1="34.5" x2="11" y2="34.5" stroke="white"/>
<line x1="148" y1="57.5" x2="11" y2="57.5" stroke="white"/>
<line x1="148" y1="80.5" x2="11" y2="80.5" stroke="white"/>
<line x1="148" y1="102.5" x2="11" y2="102.5" stroke="white"/>
<line x1="148" y1="125.5" x2="11" y2="125.5" stroke="white"/>
<rect x="11.5" y="11.5" width="136" height="136" stroke="white"/>
<line opacity="0.18" x1="46" y1="79.5" x2="80" y2="79.5" stroke="#535353"/>
<line opacity="0.18" x1="79.5" y1="46" x2="79.5" y2="80" stroke="#535353"/>
</svg>
