<svg width="158" height="159" viewBox="0 0 158 159" fill="none" xmlns="http://www.w3.org/2000/svg">
<rect x="2" y="2.64612" width="154" height="154" rx="8" stroke="white" stroke-width="4"/>
<circle cx="39" cy="56.6461" r="14.5" fill="#363636" stroke="white" stroke-width="3"/>
<circle cx="127" cy="103.646" r="14.5" fill="#363636" stroke="white" stroke-width="3"/>
<path d="M113.5 104.146L99.415 94.0658L97.7277 111.304L113.5 104.146ZM38.1963 63.3879C45.4225 76.0886 53.9372 85.3554 64.1388 91.9352C74.3339 98.5108 86.1319 102.35 99.8501 104.316L100.276 101.346C86.8618 99.424 75.5049 95.6962 65.7648 89.4141C56.0312 83.1361 47.8305 74.2544 40.8037 61.9043L38.1963 63.3879Z" fill="#363636"/>
<path d="M52 55.6461L66.0318 65.8004L67.8097 48.5714L52 55.6461ZM127.804 97.9043C113.303 72.419 93.3301 59.8011 65.6533 55.549L65.1977 58.5142C92.0267 62.636 111.178 74.7491 125.196 99.3879L127.804 97.9043Z" fill="#363636"/>
</svg>
