<svg width="158" height="158" viewBox="0 0 158 158" fill="none" xmlns="http://www.w3.org/2000/svg">
<rect x="2" y="2" width="154" height="154" rx="8" stroke="white" stroke-width="4"/>
<path d="M80 70L99 31" stroke="#363636" stroke-width="3"/>
<path d="M124 62L79 70" stroke="#363636" stroke-width="3"/>
<path d="M123 63L99 31" stroke="#363636" stroke-width="3"/>
<path d="M81 70L104 111" stroke="#363636" stroke-width="3"/>
<path d="M105 111L122 63" stroke="#363636" stroke-width="3"/>
<path d="M79 68L35 60" stroke="#363636" stroke-width="3"/>
<path d="M41 71L48 111" stroke="#363636" stroke-width="3"/>
<path d="M45 100L81 69" stroke="#363636" stroke-width="3"/>
<path d="M100 32L104 108" stroke="#363636" stroke-width="3"/>
<path d="M43 100L104 113" stroke="#363636" stroke-width="3"/>
<circle cx="104.142" cy="110.142" r="10.75" transform="rotate(-45 104.142 110.142)" fill="#363636" stroke="white" stroke-width="1.5"/>
<path d="M53.4506 108.451C57.6729 104.228 57.4658 97.263 53.0971 92.8942C48.7284 88.5255 41.763 88.3185 37.5407 92.5407C33.3185 96.7629 33.5256 103.728 37.8943 108.097C42.263 112.466 49.2284 112.673 53.4506 108.451Z" fill="#363636" stroke="white" stroke-width="1.5"/>
<path d="M45.0971 68.0971C49.4658 63.7284 49.6729 56.763 45.4506 52.5407C41.2284 48.3185 34.263 48.5256 29.8943 52.8943C25.5256 57.263 25.3185 64.2284 29.5407 68.4506C33.763 72.6729 40.7284 72.4658 45.0971 68.0971Z" fill="#363636" stroke="white" stroke-width="1.5"/>
<path d="M91.5406 23.5407C87.3184 27.763 87.5254 34.7284 91.8941 39.0971C96.2628 43.4658 103.228 43.6729 107.45 39.4506C111.673 35.2284 111.466 28.263 107.097 23.8943C102.728 19.5256 95.7628 19.3185 91.5406 23.5407Z" fill="#363636" stroke="white" stroke-width="1.5"/>
<path d="M71.8941 61.8942C67.5254 66.263 67.3183 73.2284 71.5406 77.4506C75.7628 81.6728 82.7282 81.4658 87.0969 77.097C91.4656 72.7283 91.6727 65.7629 87.4505 61.5407C83.2283 57.3185 76.2628 57.5255 71.8941 61.8942Z" fill="#363636" stroke="white" stroke-width="1.5"/>
<path d="M114.541 52.5407C110.343 56.7388 110.343 63.5454 114.541 67.7435C118.739 71.9416 125.545 71.9416 129.743 67.7435C133.942 63.5454 133.942 56.7388 129.743 52.5407C125.545 48.3426 118.739 48.3426 114.541 52.5407Z" fill="#363636" stroke="white" stroke-width="1.5"/>
</svg>
