<svg width="158" height="158" viewBox="0 0 158 158" fill="none" xmlns="http://www.w3.org/2000/svg">
<rect width="158" height="158" rx="10" fill="#535353"/>
<circle cx="65.5" cy="55.5" r="41" stroke="white" stroke-width="3"/>
<path d="M117.5 65.5C117.5 93.64 94.2456 116.5 65.5 116.5C36.7544 116.5 13.5 93.64 13.5 65.5C13.5 37.36 36.7544 14.5 65.5 14.5C94.2456 14.5 117.5 37.36 117.5 65.5Z" stroke="white" stroke-width="3"/>
<path d="M127.5 75.5C127.5 109.167 99.7642 136.5 65.5 136.5C31.2358 136.5 3.5 109.167 3.5 75.5C3.5 41.833 31.2358 14.5 65.5 14.5C99.7642 14.5 127.5 41.833 127.5 75.5Z" stroke="white" stroke-width="3"/>
<path d="M94.5 66C94.5 82.9134 81.4492 96.5 65.5 96.5C49.5508 96.5 36.5 82.9134 36.5 66C36.5 49.0866 49.5508 35.5 65.5 35.5C81.4492 35.5 94.5 49.0866 94.5 66Z" stroke="white" stroke-width="3"/>
<path d="M113.5 86C113.5 113.961 91.9409 136.5 65.5 136.5C39.0591 136.5 17.5 113.961 17.5 86C17.5 58.0391 39.0591 35.5 65.5 35.5C91.9409 35.5 113.5 58.0391 113.5 86Z" stroke="white" stroke-width="3"/>
<rect x="2" width="65" height="158" rx="10" fill="#535353"/>
<circle cx="66.5" cy="116.5" r="8.5" fill="white" stroke="#535353" stroke-width="2"/>
<circle cx="66.5" cy="137.5" r="8.5" fill="white" stroke="#535353" stroke-width="2"/>
<circle cx="66.5" cy="15.5" r="8.5" fill="white" stroke="#535353" stroke-width="2"/>
<circle cx="66.5" cy="36.5" r="8.5" fill="white" stroke="#535353" stroke-width="2"/>
<circle cx="66.5" cy="95.5" r="8.5" fill="white" stroke="#535353" stroke-width="2"/>
</svg>
