<svg width="158" height="158" viewBox="0 0 158 158" fill="none" xmlns="http://www.w3.org/2000/svg">
<rect width="158" height="158" rx="10" fill="#535353"/>
<circle cx="42.5" cy="50.5" r="31" stroke="white" stroke-width="3"/>
<circle cx="42" cy="64" r="18.5" stroke="white" stroke-width="3"/>
<path d="M134.5 107C134.5 124.949 119.949 139.5 102 139.5C84.0508 139.5 69.5 124.949 69.5 107C69.5 89.0507 84.0507 74.5 102 74.5C119.949 74.5 134.5 89.0507 134.5 107Z" stroke="white" stroke-width="3"/>
<path d="M122.5 94C122.5 104.77 113.77 113.5 103 113.5C92.2305 113.5 83.5 104.77 83.5 94C83.5 83.2304 92.2304 74.5 103 74.5C113.77 74.5 122.5 83.2304 122.5 94Z" stroke="white" stroke-width="3"/>
<rect x="4" y="17" width="37" height="80" fill="#535353"/>
<rect x="64" y="77" width="35" height="76" fill="#535353"/>
<circle cx="41" cy="46" r="9" fill="white" stroke="#535353" stroke-width="2"/>
<circle cx="41" cy="21" r="9" fill="white" stroke="#535353" stroke-width="2"/>
<circle cx="41" cy="76" r="14" fill="white" stroke="#535353" stroke-width="2"/>
<circle cx="101" cy="137" r="9" fill="white" stroke="#535353" stroke-width="2"/>
<circle cx="101" cy="112" r="9" fill="white" stroke="#535353" stroke-width="2"/>
<circle cx="101" cy="77" r="14" fill="white" stroke="#535353" stroke-width="2"/>
</svg>
