<svg width="158" height="158" viewBox="0 0 158 158" fill="none" xmlns="http://www.w3.org/2000/svg">
<rect x="158" y="158" width="158" height="158" rx="10" transform="rotate(180 158 158)" fill="#535353"/>
<path d="M33.5 77.5C33.5 49.0396 52.3463 26.5 75 26.5C97.6537 26.5 116.5 49.0396 116.5 77.5C116.5 105.96 97.6537 128.5 75 128.5C52.3463 128.5 33.5 105.96 33.5 77.5Z" stroke="white" stroke-width="3"/>
<rect x="71" y="138" width="64" height="113" transform="rotate(180 71 138)" fill="#535353"/>
<path d="M33.5 77.5C33.5 63.2704 37.5124 50.4527 43.9222 41.2331C50.3358 32.0081 59.0493 26.5 68.5 26.5C77.9507 26.5 86.6642 32.0081 93.0778 41.2331C99.4876 50.4527 103.5 63.2704 103.5 77.5C103.5 91.7296 99.4876 104.547 93.0778 113.767C86.6642 122.992 77.9507 128.5 68.5 128.5C59.0493 128.5 50.3358 122.992 43.9222 113.767C37.5124 104.547 33.5 91.7296 33.5 77.5Z" stroke="white" stroke-width="3"/>
<circle cx="69.5" cy="25.5" r="10.5" transform="rotate(180 69.5 25.5)" fill="white" stroke="#535353" stroke-width="2"/>
<circle cx="69.5" cy="129.5" r="10.5" transform="rotate(180 69.5 129.5)" fill="white" stroke="#535353" stroke-width="2"/>
</svg>
