<svg width="158" height="158" viewBox="0 0 158 158" fill="none" xmlns="http://www.w3.org/2000/svg">
<rect x="158" y="158" width="158" height="158" rx="10" transform="rotate(180 158 158)" fill="#535353"/>
<path d="M38.5 77.5C38.5 63.2704 42.5124 50.4527 48.9222 41.2331C55.3358 32.0081 64.0493 26.5 73.5 26.5C82.9507 26.5 91.6642 32.0081 98.0778 41.2331C104.488 50.4527 108.5 63.2704 108.5 77.5C108.5 91.7296 104.488 104.547 98.0778 113.767C91.6642 122.992 82.9507 128.5 73.5 128.5C64.0493 128.5 55.3358 122.992 48.9222 113.767C42.5124 104.547 38.5 91.7296 38.5 77.5Z" stroke="white" stroke-width="3"/>
<path d="M38.5 77.5C38.5 49.0396 57.3463 26.5 80 26.5C102.654 26.5 121.5 49.0396 121.5 77.5C121.5 105.96 102.654 128.5 80 128.5C57.3463 128.5 38.5 105.96 38.5 77.5Z" stroke="white" stroke-width="3"/>
<path d="M38.5 77.5C38.5 49.2343 59.8623 26.5 86 26.5C112.138 26.5 133.5 49.2343 133.5 77.5C133.5 105.766 112.138 128.5 86 128.5C59.8623 128.5 38.5 105.766 38.5 77.5Z" stroke="white" stroke-width="3"/>
<rect x="71" y="138" width="64" height="113" transform="rotate(180 71 138)" fill="#535353"/>
<circle cx="69.5" cy="25.5" r="10.5" transform="rotate(180 69.5 25.5)" fill="white" stroke="#535353" stroke-width="2"/>
<circle cx="69.5" cy="129.5" r="10.5" transform="rotate(180 69.5 129.5)" fill="white" stroke="#535353" stroke-width="2"/>
</svg>
