<svg width="158" height="158" viewBox="0 0 158 158" fill="none" xmlns="http://www.w3.org/2000/svg">
<rect x="158" y="158" width="158" height="158" rx="10" transform="rotate(180 158 158)" fill="#535353"/>
<path d="M65.5 81.5C65.5 66.9883 69.5155 53.9167 75.9297 44.5152C82.349 35.1061 91.0623 29.5 100.5 29.5C109.938 29.5 118.651 35.1061 125.07 44.5152C131.484 53.9167 135.5 66.9883 135.5 81.5C135.5 96.0117 131.484 109.083 125.07 118.485C118.651 127.894 109.938 133.5 100.5 133.5C91.0623 133.5 82.349 127.894 75.9297 118.485C69.5156 109.083 65.5 96.0117 65.5 81.5Z" stroke="white" stroke-width="3"/>
<rect x="98" y="141" width="64" height="113" transform="rotate(180 98 141)" fill="#535353"/>
<circle cx="96.5" cy="28.5" r="10.5" transform="rotate(180 96.5 28.5)" fill="white" stroke="#535353" stroke-width="2"/>
<circle cx="96.5" cy="132.5" r="10.5" transform="rotate(180 96.5 132.5)" fill="white" stroke="#535353" stroke-width="2"/>
<path d="M15.5 81.5C15.5 66.9883 19.5155 53.9167 25.9297 44.5152C32.349 35.1061 41.0623 29.5 50.5 29.5C59.9377 29.5 68.651 35.1061 75.0703 44.5152C81.4844 53.9167 85.5 66.9883 85.5 81.5C85.5 96.0117 81.4844 109.083 75.0703 118.485C68.651 127.894 59.9377 133.5 50.5 133.5C41.0623 133.5 32.349 127.894 25.9297 118.485C19.5156 109.083 15.5 96.0117 15.5 81.5Z" stroke="white" stroke-width="3"/>
<rect x="48" y="141" width="34" height="113" transform="rotate(180 48 141)" fill="#535353"/>
<circle cx="46.5" cy="28.5" r="10.5" transform="rotate(180 46.5 28.5)" fill="white" stroke="#535353" stroke-width="2"/>
<circle cx="46.5" cy="132.5" r="10.5" transform="rotate(180 46.5 132.5)" fill="white" stroke="#535353" stroke-width="2"/>
</svg>
