<svg width="158" height="158" viewBox="0 0 158 158" fill="none" xmlns="http://www.w3.org/2000/svg">
<rect x="158" y="158" width="158" height="158" rx="10" transform="rotate(180 158 158)" fill="#535353"/>
<path d="M152.5 78.5C152.5 93.0117 148.484 106.083 142.07 115.485C135.651 124.894 126.938 130.5 117.5 130.5C108.062 130.5 99.349 124.894 92.9297 115.485C86.5156 106.083 82.5 93.0117 82.5 78.5C82.5 63.9883 86.5156 50.9167 92.9297 41.5152C99.349 32.1061 108.062 26.5 117.5 26.5C126.938 26.5 135.651 32.1061 142.07 41.5152C148.484 50.9167 152.5 63.9883 152.5 78.5Z" stroke="white" stroke-width="3"/>
<rect x="120" y="19" width="34" height="113" fill="#535353"/>
<circle cx="121.5" cy="131.5" r="10.5" fill="white" stroke="#535353" stroke-width="2"/>
<circle cx="121.5" cy="27.5" r="10.5" fill="white" stroke="#535353" stroke-width="2"/>
<path d="M4.5 81.5C4.5 66.9883 8.51556 53.9167 14.9297 44.5152C21.349 35.1061 30.0623 29.5 39.5 29.5C48.9377 29.5 57.651 35.1061 64.0703 44.5152C70.4844 53.9167 74.5 66.9883 74.5 81.5C74.5 96.0117 70.4844 109.083 64.0703 118.485C57.651 127.894 48.9377 133.5 39.5 133.5C30.0623 133.5 21.349 127.894 14.9297 118.485C8.51556 109.083 4.5 96.0117 4.5 81.5Z" stroke="white" stroke-width="3"/>
<rect x="37" y="141" width="34" height="113" transform="rotate(-180 37 141)" fill="#535353"/>
<circle cx="35.5" cy="28.5" r="10.5" transform="rotate(-180 35.5 28.5)" fill="white" stroke="#535353" stroke-width="2"/>
<circle cx="35.5" cy="132.5" r="10.5" transform="rotate(-180 35.5 132.5)" fill="white" stroke="#535353" stroke-width="2"/>
</svg>
