<svg width="158" height="158" viewBox="0 0 158 158" fill="none" xmlns="http://www.w3.org/2000/svg">
<rect x="158" y="158" width="158" height="158" rx="10" transform="rotate(180 158 158)" fill="#535353"/>
<path d="M37.5097 86.2928C37.2848 84.3742 37.1322 82.4202 37.0562 80.4369L38.555 80.3795C38.5185 79.4265 38.5 78.4664 38.5 77.5C38.5 76.5336 38.5185 75.5735 38.555 74.6205L37.0562 74.5631C37.1322 72.5798 37.2848 70.6258 37.5097 68.7072L38.9995 68.8818C39.226 66.9493 39.5274 65.0542 39.899 63.203L38.4284 62.9078C38.8196 60.9592 39.2872 59.0571 39.8261 57.2088L41.2662 57.6287C41.8115 55.7586 42.4311 53.9464 43.1194 52.1998L41.7238 51.6499C42.4551 49.7942 43.2627 48.0088 44.1404 46.3027L45.4743 46.9889C46.3649 45.2577 47.3283 43.6132 48.357 42.0648L47.1076 41.2347C48.2156 39.5669 49.3993 38.0039 50.6507 36.5572L51.7852 37.5385C53.0504 36.0758 54.3835 34.7407 55.7747 33.5443L54.7967 32.407C56.3133 31.1028 57.9013 29.9524 59.5501 28.9707L60.3174 30.2596C61.9434 29.2915 63.6254 28.4995 65.3524 27.8964L64.8578 26.4803C66.71 25.8335 68.6175 25.3899 70.5681 25.1669L70.7385 26.6572C71.6493 26.5531 72.5702 26.5 73.5 26.5C74.4298 26.5 75.3507 26.5531 76.2615 26.6572L76.4319 25.1669C78.3825 25.3899 80.29 25.8335 82.1422 26.4803L81.6476 27.8964C83.3746 28.4995 85.0566 29.2915 86.6825 30.2596L87.4499 28.9707C89.0987 29.9523 90.6867 31.1028 92.2033 32.407L91.2253 33.5443C92.6165 34.7407 93.9496 36.0758 95.2148 37.5385L96.3493 36.5572C97.6007 38.0039 98.7844 39.5669 99.8924 41.2347L98.643 42.0648C99.6717 43.6132 100.635 45.2577 101.526 46.9889L102.86 46.3027C103.737 48.0088 104.545 49.7942 105.276 51.6499L103.881 52.1998C104.569 53.9464 105.189 55.7586 105.734 57.6287L107.174 57.2088C107.713 59.0571 108.18 60.9591 108.572 62.9078L107.101 63.203C107.473 65.0542 107.774 66.9493 108.001 68.8818L109.49 68.7072C109.715 70.6258 109.868 72.5798 109.944 74.5631L108.445 74.6205C108.481 75.5735 108.5 76.5336 108.5 77.5C108.5 78.4664 108.481 79.4265 108.445 80.3795L109.944 80.4369C109.868 82.4202 109.715 84.3742 109.49 86.2928L108.001 86.1182C107.774 88.0507 107.473 89.9458 107.101 91.797L108.572 92.0922C108.18 94.0409 107.713 95.9429 107.174 97.7912L105.734 97.3713C105.189 99.2414 104.569 101.054 103.881 102.8L105.276 103.35C104.545 105.206 103.737 106.991 102.86 108.697L101.526 108.011C100.635 109.742 99.6717 111.387 98.643 112.935L99.8924 113.765C98.7844 115.433 97.6007 116.996 96.3493 118.443L95.2148 117.461C93.9496 118.924 92.6165 120.259 91.2253 121.456L92.2033 122.593C90.6867 123.897 89.0987 125.048 87.4499 126.029L86.6825 124.74C85.0566 125.708 83.3745 126.5 81.6476 127.104L82.1422 128.52C80.29 129.167 78.3825 129.61 76.4319 129.833L76.2615 128.343C75.3507 128.447 74.4298 128.5 73.5 128.5C72.5702 128.5 71.6493 128.447 70.7385 128.343L70.5681 129.833C68.6175 129.61 66.71 129.167 64.8578 128.52L65.3524 127.104C63.6254 126.5 61.9434 125.708 60.3175 124.74L59.5501 126.029C57.9013 125.048 56.3133 123.897 54.7967 122.593L55.7747 121.456C54.3835 120.259 53.0504 118.924 51.7852 117.461L50.6507 118.443C49.3993 116.996 48.2156 115.433 47.1076 113.765L48.357 112.935C47.3283 111.387 46.3649 109.742 45.4743 108.011L44.1405 108.697C43.2627 106.991 42.4551 105.206 41.7239 103.35L43.1194 102.8C42.4311 101.054 41.8115 99.2414 41.2662 97.3713L39.8261 97.7912C39.2872 95.9429 38.8196 94.0409 38.4284 92.0922L39.8991 91.797C39.5274 89.9458 39.226 88.0507 38.9995 86.1182L37.5097 86.2928Z" stroke="white" stroke-width="3" stroke-dasharray="6 6"/>
<rect x="71" y="138" width="64" height="113" transform="rotate(180 71 138)" fill="#535353"/>
<circle cx="69.5" cy="25.5" r="10.5" transform="rotate(180 69.5 25.5)" fill="white" stroke="#535353" stroke-width="2"/>
<circle cx="69.5" cy="129.5" r="10.5" transform="rotate(180 69.5 129.5)" fill="white" stroke="#535353" stroke-width="2"/>
</svg>
