<svg width="158" height="158" viewBox="0 0 158 158" fill="none" xmlns="http://www.w3.org/2000/svg">
<rect x="158" y="158" width="158" height="158" rx="10" transform="rotate(180 158 158)" fill="#535353"/>
<path d="M70.5 81.5C70.5 66.9883 74.5155 53.9167 80.9297 44.5152C87.349 35.1061 96.0623 29.5 105.5 29.5C114.938 29.5 123.651 35.1061 130.07 44.5152C136.484 53.9167 140.5 66.9883 140.5 81.5C140.5 96.0117 136.484 109.083 130.07 118.485C123.651 127.894 114.938 133.5 105.5 133.5C96.0623 133.5 87.349 127.894 80.9297 118.485C74.5156 109.083 70.5 96.0117 70.5 81.5Z" stroke="white" stroke-width="3"/>
<rect x="103" y="141" width="64" height="113" transform="rotate(180 103 141)" fill="#535353"/>
<circle cx="101.5" cy="28.5" r="10.5" transform="rotate(180 101.5 28.5)" fill="white" stroke="#535353" stroke-width="2"/>
<circle cx="101.5" cy="132.5" r="10.5" transform="rotate(180 101.5 132.5)" fill="white" stroke="#535353" stroke-width="2"/>
<path d="M90.5 79.5C90.5 94.0117 86.4844 107.083 80.0703 116.485C73.651 125.894 64.9377 131.5 55.5 131.5C46.0623 131.5 37.349 125.894 30.9297 116.485C24.5156 107.083 20.5 94.0117 20.5 79.5C20.5 64.9883 24.5156 51.9167 30.9297 42.5152C37.349 33.1061 46.0623 27.5 55.5 27.5C64.9377 27.5 73.651 33.1061 80.0703 42.5152C86.4844 51.9167 90.5 64.9883 90.5 79.5Z" stroke="white" stroke-width="3"/>
<rect x="58" y="20" width="34" height="113" fill="#535353"/>
<circle cx="59.5" cy="132.5" r="10.5" fill="white" stroke="#535353" stroke-width="2"/>
<circle cx="59.5" cy="28.5" r="10.5" fill="white" stroke="#535353" stroke-width="2"/>
</svg>
