<svg width="158" height="158" viewBox="0 0 158 158" fill="none" xmlns="http://www.w3.org/2000/svg">
<rect x="158" y="158" width="158" height="158" rx="10" transform="rotate(180 158 158)" fill="#535353"/>
<path d="M95.5 79.5C95.5 94.0117 91.4844 107.083 85.0703 116.485C78.651 125.894 69.9377 131.5 60.5 131.5C51.0623 131.5 42.349 125.894 35.9297 116.485C29.5156 107.083 25.5 94.0117 25.5 79.5C25.5 64.9883 29.5156 51.9167 35.9297 42.5152C42.349 33.1061 51.0623 27.5 60.5 27.5C69.9377 27.5 78.651 33.1061 85.0703 42.5152C91.4844 51.9167 95.5 64.9883 95.5 79.5Z" stroke="white" stroke-width="3"/>
<rect x="63" y="20" width="64" height="113" fill="#535353"/>
<circle cx="64.5" cy="132.5" r="10.5" fill="white" stroke="#535353" stroke-width="2"/>
<circle cx="64.5" cy="28.5" r="10.5" fill="white" stroke="#535353" stroke-width="2"/>
<path d="M145.5 79.5C145.5 94.0117 141.484 107.083 135.07 116.485C128.651 125.894 119.938 131.5 110.5 131.5C101.062 131.5 92.349 125.894 85.9297 116.485C79.5156 107.083 75.5 94.0117 75.5 79.5C75.5 64.9883 79.5156 51.9167 85.9297 42.5152C92.349 33.1061 101.062 27.5 110.5 27.5C119.938 27.5 128.651 33.1061 135.07 42.5152C141.484 51.9167 145.5 64.9883 145.5 79.5Z" stroke="white" stroke-width="3"/>
<rect x="113" y="20" width="34" height="113" fill="#535353"/>
<circle cx="114.5" cy="132.5" r="10.5" fill="white" stroke="#535353" stroke-width="2"/>
<circle cx="114.5" cy="28.5" r="10.5" fill="white" stroke="#535353" stroke-width="2"/>
</svg>
